<?xml version="1.0" encoding="UTF-8" standalone="no"?>
<!-- Created with Inkscape (http://www.inkscape.org/) -->

<svg
   xmlns:dc="http://purl.org/dc/elements/1.1/"
   xmlns:cc="http://creativecommons.org/ns#"
   xmlns:rdf="http://www.w3.org/1999/02/22-rdf-syntax-ns#"
   xmlns:svg="http://www.w3.org/2000/svg"
   xmlns="http://www.w3.org/2000/svg"
   xmlns:sodipodi="http://sodipodi.sourceforge.net/DTD/sodipodi-0.dtd"
   xmlns:inkscape="http://www.inkscape.org/namespaces/inkscape"
   version="1.1"
   id="svg76217"
   xml:space="preserve"
   width="800"
   height="800"
   viewBox="0 0 800 800"
   sodipodi:docname="pregnant-woman-color-pdv.svg"
   inkscape:version="0.92.4 (5da689c313, 2019-01-14)"><metadata
     id="metadata76223"><rdf:RDF><cc:Work
         rdf:about=""><dc:format>image/svg+xml</dc:format><dc:type
           rdf:resource="http://purl.org/dc/dcmitype/StillImage" /><dc:title></dc:title></cc:Work></rdf:RDF></metadata><defs
     id="defs76221"><clipPath
       clipPathUnits="userSpaceOnUse"
       id="clipPath76233"><path
         d="M 0,600 H 600 V 0 H 0 Z"
         id="path76231"
         inkscape:connector-curvature="0" /></clipPath></defs><sodipodi:namedview
     pagecolor="#ffffff"
     bordercolor="#666666"
     borderopacity="1"
     objecttolerance="10"
     gridtolerance="10"
     guidetolerance="10"
     inkscape:pageopacity="0"
     inkscape:pageshadow="2"
     inkscape:window-width="1920"
     inkscape:window-height="1018"
     id="namedview76219"
     showgrid="false"
     inkscape:zoom="1.0013867"
     inkscape:cx="400"
     inkscape:cy="400"
     inkscape:window-x="-8"
     inkscape:window-y="-8"
     inkscape:window-maximized="1"
     inkscape:current-layer="g76225" /><g
     id="g76225"
     inkscape:groupmode="layer"
     inkscape:label="pregnant-woman-color-pdv"
     transform="matrix(1.3333333,0,0,-1.3333333,0,800)"><g
       id="g76227"><g
         id="g76229"
         clip-path="url(#clipPath76233)"><path
           d="m 383.063,21.053 1.173,-4.699 38.471,-1.853 c 0.856,0.957 1.244,2.388 1.291,4.518 l -42.416,7.827 c 0.513,-1.951 1.005,-3.878 1.481,-5.793"
           style="fill:#0054bd;fill-opacity:1;fill-rule:nonzero;stroke:none"
           id="path76235"
           inkscape:connector-curvature="0" /><path
           d="M 201.802,25.141 347.154,18.14 c -0.788,5.479 -1.875,10.696 -3.197,15.649 l -3.998,0.738 z"
           style="fill:#0054bd;fill-opacity:1;fill-rule:nonzero;stroke:none"
           id="path76237"
           inkscape:connector-curvature="0" /><path
           d="m 157.935,16.206 c 7.614,-2.39 16.018,-3.628 25.174,-3.497 38.662,0.566 82.281,0 82.281,0 45.279,0 82.399,0.566 82.307,1.252 -0.16,1.411 -0.343,2.802 -0.543,4.179 l -145.352,7.001 z"
           style="fill:#0051c6;fill-opacity:1;fill-rule:nonzero;stroke:none"
           id="path76239"
           inkscape:connector-curvature="0" /><path
           d="m 385.146,12.709 h 19.563 c 10.536,0 15.805,-0.658 17.998,1.792 l -38.471,1.853 z"
           style="fill:#0051c6;fill-opacity:1;fill-rule:nonzero;stroke:none"
           id="path76241"
           inkscape:connector-curvature="0" /><path
           d="m 384.412,484.713 c 0.093,0.259 0.18,0.516 0.263,0.771 l -0.719,-0.119 z"
           style="fill:#af001f;fill-opacity:1;fill-rule:nonzero;stroke:none"
           id="path76243"
           inkscape:connector-curvature="0" /><path
           d="m 342.012,399.128 10.661,-2.196 c 2.493,5.587 8.778,14.328 10.895,14.328 1.683,0 1.338,-6.173 -0.899,-16.385 l 3.394,-0.699 c 2.485,2.71 3.605,3.002 4.799,-0.989 l 21.878,-4.504 c -1.312,2.295 -3.238,4.911 -5.774,7.839 -4.587,5.3 -7.962,11.284 -8.107,14.355 -0.462,9.873 -1.121,13.301 -3.387,17.505 -3.164,5.92 -2.794,8.397 1.185,8.397 2.663,0 2.137,1.134 -2.333,4.971 -5.733,3.255 -5.867,6.511 -4.231,9.768 l 2.821,8.673 c 2.373,7.408 6.13,15.765 8.345,18.586 1.242,1.578 2.38,3.779 3.153,5.936 l -0.456,0.652 z"
           style="fill:#b40e00;fill-opacity:1;fill-rule:nonzero;stroke:none"
           id="path76245"
           inkscape:connector-curvature="0" /><path
           d="m 369.889,317.146 c -0.661,1.773 -1.345,3.486 -2.048,5.144 l -5.297,-2.946 z"
           style="fill:#ab73a3;fill-opacity:1;fill-rule:nonzero;stroke:none"
           id="path76247"
           inkscape:connector-curvature="0" /><path
           d="m 384.013,211.857 c -0.635,6.244 -0.982,12.305 -0.977,17.851 0.002,0.683 -0.002,1.366 -0.004,2.048 l -33.394,-22.995 z"
           style="fill:#003ccc;fill-opacity:1;fill-rule:nonzero;stroke:none"
           id="path76249"
           inkscape:connector-curvature="0" /><path
           d="m 351.13,135.959 56.999,-21.943 c -2.16,8.599 -4.387,18.172 -5.424,23.38 -1.293,6.471 -4.402,16.634 -6.881,22.567 -1.178,2.814 -2.309,5.975 -3.38,9.385 l -43.513,-26.281 c 0.842,-2.538 1.568,-4.889 2.199,-7.108"
           style="fill:#0056c8;fill-opacity:1;fill-rule:nonzero;stroke:none"
           id="path76251"
           inkscape:connector-curvature="0" /><path
           d="m 349.638,208.761 -5.346,-52.793 c 1.844,-4.839 3.371,-9.081 4.639,-12.901 l 43.513,26.281 c -3.868,12.31 -6.943,27.906 -8.431,42.509 z"
           style="fill:#006ad4;fill-opacity:1;fill-rule:nonzero;stroke:none"
           id="path76253"
           inkscape:connector-curvature="0" /><path
           d="m 349.638,208.761 33.394,22.995 c -0.183,33.178 -5,63.539 -13.143,85.39 l -7.345,2.198 z"
           style="fill:#0074c4;fill-opacity:1;fill-rule:nonzero;stroke:none"
           id="path76255"
           inkscape:connector-curvature="0" /><path
           d="m 381.582,26.846 42.416,-7.827 c 0.094,4.179 -1.117,11.047 -2.653,22.307 -1.563,11.459 -2.799,20.346 -3.872,27.593 L 374.967,50.06 c 2.597,-8.547 4.736,-16.048 6.615,-23.214"
           style="fill:#0048b4;fill-opacity:1;fill-rule:nonzero;stroke:none"
           id="path76257"
           inkscape:connector-curvature="0" /><path
           d="m 343.957,33.789 c -0.2,0.752 -0.407,1.498 -0.618,2.238 l -3.38,-1.5 z"
           style="fill:#0048b4;fill-opacity:1;fill-rule:nonzero;stroke:none"
           id="path76259"
           inkscape:connector-curvature="0" /><path
           d="m 343.339,36.027 c -0.939,3.285 -1.981,6.449 -3.105,9.497 l -0.275,-10.997 z"
           style="fill:#0063c3;fill-opacity:1;fill-rule:nonzero;stroke:none"
           id="path76261"
           inkscape:connector-curvature="0" /><path
           d="m 354.063,122.657 c 1.977,-13.154 2.823,-16.161 14.105,-51.04 2.59,-7.994 4.826,-15.077 6.799,-21.557 l 42.506,18.859 c -2.752,18.568 -4.436,26.356 -7.782,39.015 -0.503,1.916 -1.031,3.969 -1.562,6.082 l -56.999,21.943 c 1.391,-4.9 2.308,-9.148 2.933,-13.302"
           style="fill:#0063c3;fill-opacity:1;fill-rule:nonzero;stroke:none"
           id="path76263"
           inkscape:connector-curvature="0" /><path
           d="m 367.841,322.29 c -3.06,7.207 -6.52,13.301 -10.323,18.025 -0.183,0.228 -0.364,0.452 -0.545,0.679 l 5.571,-21.65 z"
           style="fill:#b26a3a;fill-opacity:1;fill-rule:nonzero;stroke:none"
           id="path76265"
           inkscape:connector-curvature="0" /><path
           d="m 345.047,387.335 c 3.283,1.344 6.591,3.982 6.591,6.103 0,0.818 0.391,2.051 1.035,3.494 l -10.661,2.196 z"
           style="fill:#b26a3a;fill-opacity:1;fill-rule:nonzero;stroke:none"
           id="path76267"
           inkscape:connector-curvature="0" /><path
           d="m 373.046,382.906 c 2.86,-15.529 6.854,-18.099 7.645,-4.969 0.661,10.954 2.293,11.969 7.831,4.903 2.094,-2.636 4.376,-4.272 5.061,-3.586 1.93,1.93 1.635,5.104 -0.843,9.429 l -21.878,4.504 c 0.635,-2.123 1.291,-5.454 2.184,-10.281"
           style="fill:#b26a3a;fill-opacity:1;fill-rule:nonzero;stroke:none"
           id="path76269"
           inkscape:connector-curvature="0" /><path
           d="m 362.157,392.607 c -0.856,-3.626 -0.619,-3.598 2.98,0.527 0.329,0.379 0.636,0.726 0.926,1.042 l -3.394,0.699 c -0.16,-0.737 -0.331,-1.491 -0.512,-2.268"
           style="fill:#b26a3a;fill-opacity:1;fill-rule:nonzero;stroke:none"
           id="path76271"
           inkscape:connector-curvature="0" /><path
           d="m 384.675,485.484 c 0.162,0.511 0.302,1.014 0.415,1.502 l -1.134,-1.621 z"
           style="fill:#aa002b;fill-opacity:1;fill-rule:nonzero;stroke:none"
           id="path76273"
           inkscape:connector-curvature="0" /><path
           d="m 385.09,486.986 c 0.199,0.842 0.322,1.637 0.348,2.337 0.21,7.803 -4.405,20.233 -9.664,26.099 -5.392,5.972 -5.655,7.738 -1.2,7.738 5.629,0 -3.4,5.747 -9.201,5.865 -4.019,0.067 -4.376,0.476 -1.977,2.163 3.418,2.415 -4.374,1.365 -10.969,-0.714 l 31.529,-45.109 z"
           style="fill:#ad0020;fill-opacity:1;fill-rule:nonzero;stroke:none"
           id="path76275"
           inkscape:connector-curvature="0" /><path
           d="m 201.802,25.141 138.157,9.386 -82.718,9.972 z"
           style="fill:#0066c9;fill-opacity:1;fill-rule:nonzero;stroke:none"
           id="path76277"
           inkscape:connector-curvature="0" /><path
           d="m 297.719,287.078 51.919,-78.317 12.906,110.583 z"
           style="fill:#0dc5cd;fill-opacity:1;fill-rule:nonzero;stroke:none"
           id="path76279"
           inkscape:connector-curvature="0" /><path
           d="m 383.956,485.365 -47.284,-12.431 c -0.16,-0.848 -0.346,-1.698 -0.561,-2.54 -1.293,-4.983 -2.598,-11.468 -2.901,-14.383 -0.316,-2.912 -1.633,-6.576 -2.926,-8.146 -1.872,-2.227 -1.833,-3.032 0.158,-3.704 1.49,-0.5 0.106,-2.122 -3.347,-3.914 -3.257,-1.688 -7.593,-4.917 -9.636,-7.21 -3.31,-3.613 -3.362,-4.114 -0.489,-4.114 1.794,0 3.243,-0.883 3.243,-1.95 0,-1.094 -2.215,-1.965 -4.903,-1.965 -4.548,0 -4.904,0.672 -4.904,9.359 0,7.896 1.239,11.047 7.803,19.787 4.395,5.84 7.056,10.377 9.145,16.331 l -51.634,-13.572 66.292,-57.785 z"
           style="fill:#c32500;fill-opacity:1;fill-rule:nonzero;stroke:none"
           id="path76281"
           inkscape:connector-curvature="0" /><path
           d="m 327.354,470.485 c 1.337,3.815 2.441,8.209 3.615,13.907 0.608,2.965 1.952,5.392 2.993,5.392 3.08,0 4.296,-8.366 2.71,-16.85 l 47.284,12.431 -31.529,45.109 c -2.509,-0.791 -4.845,-1.732 -6.325,-2.688 -6.986,-4.494 -14.566,-1.765 -21.157,7.62 -3.237,4.611 -6.555,8.797 -9.864,12.485 L 275.72,456.913 Z"
           style="fill:#c10600;fill-opacity:1;fill-rule:nonzero;stroke:none"
           id="path76283"
           inkscape:connector-curvature="0" /><path
           d="M 339.959,34.527 270.147,134.256 257.241,44.499 Z"
           style="fill:#0074ce;fill-opacity:1;fill-rule:nonzero;stroke:none"
           id="path76285"
           inkscape:connector-curvature="0" /><path
           d="m 339.959,34.527 0.275,10.997 c -12.887,34.998 -36.627,54.656 -41.375,61.171 -5.003,6.832 -6.53,17.889 -6.456,29.094 l -22.256,-1.533 z"
           style="fill:#007fd1;fill-opacity:1;fill-rule:nonzero;stroke:none"
           id="path76287"
           inkscape:connector-curvature="0" /><path
           d="m 362.544,319.344 -5.571,21.65 c -10.916,13.571 -19.242,24.85 -24.725,33.436 l -34.529,-87.352 z"
           style="fill:#93c353;fill-opacity:1;fill-rule:nonzero;stroke:none"
           id="path76289"
           inkscape:connector-curvature="0" /><path
           d="m 337.108,386.726 c 1.031,0.399 1.932,0.482 2.455,0.148 1.2,-0.74 3.336,-0.415 5.484,0.461 l -3.035,11.793 z"
           style="fill:#93c353;fill-opacity:1;fill-rule:nonzero;stroke:none"
           id="path76291"
           inkscape:connector-curvature="0" /><path
           d="m 315.081,547.891 c -7.927,8.832 -15.795,14.776 -22.352,16.673 -6.566,1.905 -17.999,2.602 -27.711,2.117 L 275.72,456.913 Z"
           style="fill:#c60800;fill-opacity:1;fill-rule:nonzero;stroke:none"
           id="path76293"
           inkscape:connector-curvature="0" /><path
           d="m 246.388,401.474 51.331,-114.396 34.529,87.352 c -5.875,9.201 -8.487,15.312 -7.526,17.836 2.214,5.785 5.299,3.518 5.299,-3.89 0,-6.986 0.118,-7.092 3.822,-3.73 1.049,0.948 2.223,1.675 3.265,2.08 l 4.904,12.402 z"
           style="fill:#c8c010;fill-opacity:1;fill-rule:nonzero;stroke:none"
           id="path76295"
           inkscape:connector-curvature="0" /><path
           d="m 270.147,134.256 22.256,1.533 c 0.081,12.12 2.037,24.412 3.503,31.714 0.57,2.84 2.048,7.277 4.009,12.391 l -25.075,23.88 z"
           style="fill:#0097de;fill-opacity:1;fill-rule:nonzero;stroke:none"
           id="path76297"
           inkscape:connector-curvature="0" /><path
           d="m 324.986,207.117 c 0.734,-2.027 1.507,-4.202 2.292,-6.449 3.507,-9.98 8.173,-22.555 10.362,-27.945 2.586,-6.325 4.782,-11.847 6.652,-16.755 l 5.346,52.793 z"
           style="fill:#008dde;fill-opacity:1;fill-rule:nonzero;stroke:none"
           id="path76299"
           inkscape:connector-curvature="0" /><path
           d="m 299.915,179.894 c 3.179,8.293 7.631,18.368 11.556,26.323 l -36.631,-2.443 z"
           style="fill:#008dde;fill-opacity:1;fill-rule:nonzero;stroke:none"
           id="path76301"
           inkscape:connector-curvature="0" /><path
           d="m 297.719,287.078 -22.879,-83.304 36.631,2.443 c 4.123,8.357 7.664,14.373 8.532,13.512 0.408,-0.409 2.461,-5.642 4.983,-12.612 l 24.652,1.644 z"
           style="fill:#0097e2;fill-opacity:1;fill-rule:nonzero;stroke:none"
           id="path76303"
           inkscape:connector-curvature="0" /><path
           d="m 310.406,419.183 c 0,3.387 0.579,3.676 3.981,1.858 2.188,-1.16 3.454,-2.965 2.821,-3.995 -2.083,-3.387 -6.802,-1.923 -6.802,2.137 m -34.686,37.73 -29.332,-55.439 95.624,-2.346 z"
           style="fill:#ce5c00;fill-opacity:1;fill-rule:nonzero;stroke:none"
           id="path76305"
           inkscape:connector-curvature="0" /><path
           d="m 236.425,396.681 c 1.205,-3.455 2.48,-7.544 3.593,-11.509 l 6.37,16.302 z"
           style="fill:#d4e200;fill-opacity:1;fill-rule:nonzero;stroke:none"
           id="path76307"
           inkscape:connector-curvature="0" /><path
           d="m 222.566,340.506 -16.928,-17.103 c -7.177,-7.247 -15.349,-14.148 -23.615,-20.632 l 12.446,-34.172 z"
           style="fill:#d4e200;fill-opacity:1;fill-rule:nonzero;stroke:none"
           id="path76309"
           inkscape:connector-curvature="0" /><path
           d="m 257.241,44.499 12.906,89.757 -61.598,-30.798 z"
           style="fill:#008ad9;fill-opacity:1;fill-rule:nonzero;stroke:none"
           id="path76311"
           inkscape:connector-curvature="0" /><path
           d="m 274.84,203.774 22.879,83.304 -103.25,-18.479 z"
           style="fill:#08e0e0;fill-opacity:1;fill-rule:nonzero;stroke:none"
           id="path76313"
           inkscape:connector-curvature="0" /><path
           d="m 297.719,287.078 -51.331,114.396 -6.37,-16.302 c 1.526,-5.439 2.746,-10.645 3.055,-13.668 l 0.949,-9.32 -21.456,-21.678 -28.097,-71.907 z"
           style="fill:#7fdf17;fill-opacity:1;fill-rule:nonzero;stroke:none"
           id="path76315"
           inkscape:connector-curvature="0" /><path
           d="m 250.508,564.418 c -3.216,-1.251 -10.281,-3.109 -15.647,-4.125 -11.666,-2.214 -23.74,-9.728 -25.652,-15.95 -0.751,-2.478 -4.284,-8.08 -7.843,-12.469 -8.037,-9.929 -11.116,-20.753 -10.163,-35.97 l 65.255,69.951 c -2.389,-0.373 -4.433,-0.852 -5.95,-1.437"
           style="fill:#df2200;fill-opacity:1;fill-rule:nonzero;stroke:none"
           id="path76317"
           inkscape:connector-curvature="0" /><path
           d="m 270.147,134.256 4.693,69.518 -66.291,-100.316 z"
           style="fill:#009be2;fill-opacity:1;fill-rule:nonzero;stroke:none"
           id="path76319"
           inkscape:connector-curvature="0" /><path
           d="m 274.84,203.774 -128.182,26.107 8.648,-17.666 c 1.586,0.485 2.925,1.272 3.904,2.373 -0.579,-2.382 -1.075,-4.661 -1.668,-6.942 l 51.007,-104.188 z"
           style="fill:#00afec;fill-opacity:1;fill-rule:nonzero;stroke:none"
           id="path76321"
           inkscape:connector-curvature="0" /><path
           d="m 265.018,566.681 c -3.101,-0.155 -6.026,-0.431 -8.56,-0.826 l -65.255,-69.951 c 0.057,-0.904 0.126,-1.823 0.211,-2.759 1.226,-13.155 1.12,-13.471 -6.683,-24.966 l -7.883,-11.64 5.357,-3.341 93.515,3.715 z"
           style="fill:#dc2b00;fill-opacity:1;fill-rule:nonzero;stroke:none"
           id="path76323"
           inkscape:connector-curvature="0" /><path
           d="m 275.72,456.913 -93.515,-3.715 0.074,-0.046 c 2.979,-1.873 5.747,-3.639 6.143,-3.902 0.382,-0.264 0.857,-4.403 1.015,-9.175 0.127,-3.547 0.786,-7.289 1.626,-9.588 l 55.325,-29.013 z"
           style="fill:#df5e00;fill-opacity:1;fill-rule:nonzero;stroke:none"
           id="path76325"
           inkscape:connector-curvature="0" /><path
           d="M 146.658,229.881 274.84,203.774 194.469,268.599 Z"
           style="fill:#00c5ef;fill-opacity:1;fill-rule:nonzero;stroke:none"
           id="path76327"
           inkscape:connector-curvature="0" /><path
           d="m 208.549,103.458 -6.747,-78.317 55.439,19.358 z"
           style="fill:#0074d4;fill-opacity:1;fill-rule:nonzero;stroke:none"
           id="path76329"
           inkscape:connector-curvature="0" /><path
           d="m 191.063,430.487 c 0.289,-0.794 0.6,-1.418 0.918,-1.801 1.239,-1.476 2.135,-6.011 2.03,-10.071 -0.317,-10.717 2.294,-12.233 21.275,-12.444 9.122,-0.079 16.952,-0.527 17.4,-0.975 0.829,-0.852 2.229,-4.187 3.739,-8.515 l 9.963,4.793 z"
           style="fill:#e88200;fill-opacity:1;fill-rule:nonzero;stroke:none"
           id="path76331"
           inkscape:connector-curvature="0" /><path
           d="m 182.023,302.771 c -9.83,-7.712 -19.789,-14.833 -28.356,-21.239 l 40.802,-12.933 z"
           style="fill:#c8f008;fill-opacity:1;fill-rule:nonzero;stroke:none"
           id="path76333"
           inkscape:connector-curvature="0" /><path
           d="m 157.542,207.646 c -1.913,-7.358 -4.836,-14.71 -14.861,-25.458 -17.704,-19.01 -28.56,-40.966 -33.202,-62.642 l 99.07,-16.088 z"
           style="fill:#00b0ed;fill-opacity:1;fill-rule:nonzero;stroke:none"
           id="path76335"
           inkscape:connector-curvature="0" /><path
           d="m 136.736,216.175 c 6.341,-4.041 13.646,-5.462 18.57,-3.96 l -8.648,17.666 z"
           style="fill:#00b0ed;fill-opacity:1;fill-rule:nonzero;stroke:none"
           id="path76337"
           inkscape:connector-curvature="0" /><path
           d="m 208.549,103.458 -80.412,-68.33 c 7.887,-8.603 17.872,-15.178 29.798,-18.922 l 43.867,8.935 z"
           style="fill:#0069d5;fill-opacity:1;fill-rule:nonzero;stroke:none"
           id="path76339"
           inkscape:connector-curvature="0" /><path
           d="m 109.479,119.546 c -6.927,-32.342 -0.014,-64.054 18.658,-84.418 l 80.412,68.33 z"
           style="fill:#0081dd;fill-opacity:1;fill-rule:nonzero;stroke:none"
           id="path76341"
           inkscape:connector-curvature="0" /><path
           d="m 132.004,219.891 c 1.471,-1.415 3.068,-2.656 4.732,-3.716 l 9.922,13.706 z"
           style="fill:#2bebcb;fill-opacity:1;fill-rule:nonzero;stroke:none"
           id="path76343"
           inkscape:connector-curvature="0" /><path
           d="m 194.469,268.599 -40.802,12.933 c -10.213,-7.635 -18.447,-14.256 -22.12,-19.652 l 15.111,-31.999 z"
           style="fill:#7bf383;fill-opacity:1;fill-rule:nonzero;stroke:none"
           id="path76345"
           inkscape:connector-curvature="0" /><path
           d="m 131.547,261.88 c -0.134,-0.197 -0.265,-0.395 -0.387,-0.59 -6.069,-9.635 -7.965,-18.025 -7.244,-25.03 l 22.742,-6.379 z"
           style="fill:#b8f828;fill-opacity:1;fill-rule:nonzero;stroke:none"
           id="path76347"
           inkscape:connector-curvature="0" /><path
           d="m 123.916,236.26 c 0.7,-6.809 3.872,-12.308 8.088,-16.369 l 14.654,9.99 z"
           style="fill:#95f58d;fill-opacity:1;fill-rule:nonzero;stroke:none"
           id="path76349"
           inkscape:connector-curvature="0" /></g></g></g></svg>